<?xml version="1.0" standalone="no"?>
<!DOCTYPE svg PUBLIC "-//W3C//DTD SVG 20010904//EN"
 "http://www.w3.org/TR/2001/REC-SVG-20010904/DTD/svg10.dtd">
<svg version="1.0" xmlns="http://www.w3.org/2000/svg"
 width="500.000000pt" height="500.000000pt" viewBox="0 0 500.000000 500.000000"
 preserveAspectRatio="xMidYMid meet">
<metadata>
Created by potrace 1.16, written by Peter Selinger 2001-2019
</metadata>
<g transform="translate(0.000000,500.000000) scale(0.100000,-0.100000)"
fill="#FAAD29" stroke="none">
<path d="M2235 4799 c-370 -45 -714 -172 -1018 -376 -147 -99 -238 -176 -372
-314 -264 -273 -441 -575 -553 -944 -108 -354 -122 -774 -41 -1155 53 -244
186 -558 328 -769 290 -433 715 -759 1197 -916 247 -81 461 -115 722 -115 193
0 297 10 472 46 545 112 1042 428 1372 875 107 144 167 243 239 394 214 451
275 975 170 1477 -47 227 -186 562 -311 753 -185 281 -452 543 -728 715 -283
175 -630 295 -954 330 -113 12 -421 11 -523 -1z m1861 -1037 c29 -131 30 -165
3 -256 -63 -212 -165 -322 -354 -379 -27 -9 -81 -25 -120 -36 -38 -12 -81 -30
-95 -40 l-25 -20 42 -103 c51 -128 77 -208 69 -215 -3 -3 -39 0 -81 6 -103 15
-272 14 -375 -3 -47 -8 -188 -39 -315 -69 -339 -82 -333 -82 -585 -80 -234 1
-280 6 -640 68 -85 15 -159 31 -164 36 -16 15 39 205 84 295 14 26 17 42 10
55 -14 25 -19 27 -112 45 -192 36 -311 117 -386 262 -69 133 -89 232 -67 329
24 108 67 235 77 225 4 -4 17 -41 29 -82 11 -40 31 -97 44 -125 29 -60 130
-162 192 -193 69 -36 181 -60 319 -71 71 -5 145 -16 164 -23 33 -14 34 -13 75
27 23 22 66 53 96 69 30 16 56 30 58 32 2 2 -6 15 -18 30 -11 15 -21 35 -21
45 0 17 9 18 148 12 81 -3 155 -10 164 -14 9 -5 26 -9 38 -9 20 0 21 4 14 48
-3 26 -11 55 -16 65 -5 10 -7 21 -4 24 8 8 98 -40 110 -59 6 -10 14 -18 18
-18 11 0 1 60 -13 76 -6 8 -9 17 -6 20 10 10 100 -28 141 -60 l39 -30 -5 47
c-6 53 -12 54 93 -9 62 -37 78 -42 59 -19 -9 11 -9 15 -1 15 20 0 81 -51 116
-97 18 -23 35 -40 38 -36 8 8 -2 54 -16 71 -5 7 -8 15 -5 17 2 3 35 -25 71
-61 37 -36 67 -62 68 -57 1 4 0 19 -1 33 -1 16 2 21 8 15 13 -14 73 -106 94
-144 27 -49 59 -59 111 -34 62 30 101 40 212 53 126 14 211 40 300 93 138 81
187 145 237 307 11 36 23 69 26 74 10 17 33 -45 58 -152z m-3003 -1456 c47
-19 59 -63 64 -247 6 -185 -8 -325 -34 -345 -11 -9 -38 -13 -73 -11 -47 2 -56
5 -69 29 -13 23 -13 34 -3 70 25 88 35 145 28 163 -10 27 -26 7 -56 -68 -21
-51 -30 -63 -51 -65 -22 -3 -29 5 -55 59 -30 66 -56 91 -74 73 -6 -6 -5 -37 4
-94 16 -99 8 -141 -30 -158 -76 -35 -146 6 -160 93 -10 70 2 318 21 400 18 81
28 95 83 102 60 8 82 -11 120 -106 31 -75 36 -81 62 -81 35 0 51 26 71 113 8
37 20 64 33 73 26 18 77 18 119 0z m2523 -4 c38 -30 44 -56 44 -189 -1 -248
-27 -341 -111 -398 -38 -26 -52 -30 -109 -29 -74 1 -113 18 -164 69 -54 54
-77 129 -83 276 -8 163 0 214 38 252 27 26 35 29 76 24 81 -9 81 -11 72 -242
-4 -103 12 -145 55 -145 59 0 79 85 52 217 -23 113 -21 138 10 162 33 26 91
27 120 3z m-2063 -17 c157 -65 191 -276 81 -500 -38 -79 -55 -93 -119 -102
-96 -13 -212 53 -259 149 -23 46 -26 64 -26 159 0 60 5 130 10 156 13 61 70
129 125 149 47 17 133 12 188 -11z m496 9 c70 -19 111 -53 118 -98 4 -28 1
-39 -21 -61 -29 -29 -29 -29 -143 -5 -34 8 -66 11 -69 7 -14 -14 32 -50 116
-91 104 -52 130 -84 130 -162 0 -29 -5 -63 -11 -76 -15 -32 -86 -84 -137 -99
-82 -24 -269 35 -287 91 -17 53 29 120 82 120 26 0 72 -21 114 -52 35 -26 59
-15 59 28 0 40 -17 54 -115 91 -92 35 -112 49 -136 94 -48 95 4 181 129 215
64 17 106 17 171 -2z m554 5 c30 -8 42 -18 53 -44 17 -42 18 -76 2 -110 -12
-27 -39 -32 -95 -16 -55 16 -67 -23 -38 -129 19 -70 19 -200 1 -245 -32 -76
-135 -74 -172 3 -15 33 -16 48 -4 162 20 193 6 232 -75 213 -59 -13 -70 -4
-69 55 4 104 34 121 224 122 74 0 152 -5 173 -11z m420 -9 c52 -15 104 -64
118 -111 16 -51 -3 -137 -37 -179 -27 -31 -24 -51 11 -80 23 -19 55 -85 55
-111 0 -61 -95 -134 -145 -111 -27 12 -69 87 -80 142 -12 62 -16 70 -36 70
-26 0 -26 -54 1 -98 23 -37 24 -51 9 -85 -21 -47 -91 -61 -145 -28 -25 15 -32
28 -42 77 -16 80 -37 412 -29 446 10 38 43 66 91 77 47 12 174 6 229 -9z m847
4 c22 -9 40 -20 40 -25 0 -16 30 -9 50 11 25 25 53 25 110 -1 60 -28 95 -26
153 6 45 25 50 26 98 15 64 -16 113 -61 129 -119 13 -50 30 -235 30 -341 0
-84 -12 -110 -60 -135 -37 -19 -64 -19 -105 1 -49 23 -57 57 -49 199 5 98 4
127 -9 158 -12 28 -22 37 -40 37 -32 0 -35 -15 -26 -120 14 -160 11 -215 -12
-244 -18 -23 -27 -26 -82 -26 -34 0 -69 5 -77 10 -12 7 -16 42 -20 174 -6 183
-13 207 -53 168 -21 -22 -22 -29 -19 -170 3 -138 1 -150 -18 -175 -41 -51
-127 -42 -166 18 -14 22 -15 34 -5 82 15 76 14 146 -5 277 -13 94 -13 117 -2
151 20 62 65 78 138 49z"/>
</g>
</svg>
